# Hierarchical Translation and Rotation (.htr) file
# Generated by EVaRT
[Header]
FileType htr
DataType HTRS
FileVersion 1
NumSegments 23
NumFrames 4
DataFrameRate 120
EulerRotationOrder ZYX
CalibrationUnits mm
RotationUnits Degrees
GlobalAxisofGravity Y
BoneLengthAxis Y
ScaleFactor 1
[SegmentNames&Hierarchy]
#CHILD            PARENT
DaveRoot          GLOBAL
Spine1            DaveRoot
Spine2            Spine1
Spine3            Spine2
Spine4            Spine3
Neck              Spine4
Head              Neck
LClavicle         Spine4
LUpperArm         LClavicle
LLowerArm         LUpperArm
LHand             LLowerArm
RClavicle         Spine4
RUpperArm         RClavicle
RLowerArm         RUpperArm
RHand             RLowerArm
RUpperLeg         DaveRoot
RLowerLeg         RUpperLeg
RFoot             RLowerLeg
RToes             RFoot
LUpperLeg         DaveRoot
LLowerLeg         LUpperLeg
LFoot             LLowerLeg
LToes             LFoot
[BasePosition]
#SegmentName      Tx   Ty   Tz   Rx   Ry   Rz   BoneLength
DaveRoot          30.502683	1014.050144	-392.030244	16.346492	-1.112010	-1.464339	100.000000
Spine1            0.000000	100.000000	0.000000	-16.708095	0.289044	-0.213389	100.000000
Spine2            0.000000	100.000000	0.000000	4.757952	0.249599	-0.116624	100.000000
Spine3            0.000000	100.000000	0.000000	11.084253	0.260929	-0.088411	100.000000
Spine4            0.000000	100.000000	0.000000	12.228282	1.332274	1.443083	100.000000
Neck              0.000000	100.000000	0.000000	10.147668	18.171820	1.381874	80.000000
Head              0.000000	80.000000	0.000000	-46.518491	-1.401195	-5.185409	200.000000
LClavicle         0.000000	100.000000	0.000000	-3.689620	-1.992124	-101.831237	200.000000
LUpperArm         0.000000	200.000000	0.000000	-0.284445	-3.207106	1.762499	300.000000
LLowerArm         0.000000	300.000000	0.000000	9.834184	2.175812	1.895763	200.000000
LHand             0.000000	200.000000	0.000000	-2.090742	-1.768569	8.793625	120.000000
RClavicle         0.000000	100.000000	0.000000	-0.558465	-3.870894	107.984856	200.000000
RUpperArm         0.000000	200.000000	0.000000	6.860362	-6.098052	-15.811317	300.000000
RLowerArm         0.000000	300.000000	0.000000	5.698581	-3.682026	-7.348670	200.000000
RHand             0.000000	200.000000	0.000000	-4.626921	6.468423	-3.971303	120.000000
RUpperLeg         -115.911102	-10.000000	31.058285	22.974686	25.481186	-170.503396	530.000000
RLowerLeg         0.000000	530.000000	0.000000	-7.725558	0.479387	-2.520024	460.000000
RFoot             0.000000	460.000000	0.000000	81.786251	-5.006629	-0.462861	130.000000
RToes             0.000000	130.000000	0.000000	20.181248	0.005479	-0.002881	100.000000
LUpperLeg         115.911102	-10.000000	31.058285	21.582405	10.065134	-177.228489	530.000000
LLowerLeg         0.000000	530.000000	0.000000	-4.243927	-3.275937	3.046484	460.000000
LFoot             0.000000	460.000000	0.000000	77.706358	-14.203819	16.055021	130.000000
LToes             0.000000	130.000000	0.000000	27.168776	-0.000000	-0.000086	100.000000
#Beginning of Data.
[DaveRoot]
#Fr	Tx	Ty	Tz	Rx	Ry	Rz	SF
1131	141.079501	-349.646371	242.116149	-18.589092	75.676791	-68.472161	1.000000	
1132	140.311210	-343.175483	242.812362	-19.174791	75.638944	-69.014772	1.000000	
1133	139.528341	-336.584884	243.555310	-19.773044	75.630674	-69.568065	1.000000	
1134	138.754026	-329.876335	244.337698	-20.372130	75.651836	-70.121743	1.000000	
[Spine1]
#Fr	Tx	Ty	Tz	Rx	Ry	Rz	SF
1131	0.000000	0.000000	0.000000	6.473096	0.674083	-1.613723	1.000000	
1132	0.000000	0.000000	0.000000	6.466406	0.676261	-1.569038	1.000000	
1133	0.000000	0.000000	0.000000	6.456560	0.667943	-1.535066	1.000000	
1134	0.000000	0.000000	0.000000	6.441609	0.650214	-1.516155	1.000000	
[Spine2]
#Fr	Tx	Ty	Tz	Rx	Ry	Rz	SF
1131	0.000000	0.000000	0.000000	6.473096	0.674083	-1.613723	1.000000	
1132	0.000000	0.000000	0.000000	6.466406	0.676261	-1.569038	1.000000	
1133	0.000000	0.000000	0.000000	6.456560	0.667943	-1.535066	1.000000	
1134	0.000000	0.000000	0.000000	6.441609	0.650214	-1.516155	1.000000	
[Spine3]
#Fr	Tx	Ty	Tz	Rx	Ry	Rz	SF
1131	0.000000	0.000000	0.000000	6.473096	0.674083	-1.613723	1.000000	
1132	0.000000	0.000000	0.000000	6.466406	0.676261	-1.569038	1.000000	
1133	0.000000	0.000000	0.000000	6.456560	0.667943	-1.535066	1.000000	
1134	0.000000	0.000000	0.000000	6.441609	0.650214	-1.516155	1.000000	
[Spine4]
#Fr	Tx	Ty	Tz	Rx	Ry	Rz	SF
1131	0.000000	0.000000	0.000000	6.473096	0.674083	-1.613723	1.000000	
1132	0.000000	0.000000	0.000000	6.466406	0.676261	-1.569038	1.000000	
1133	0.000000	0.000000	0.000000	6.456560	0.667943	-1.535066	1.000000	
1134	0.000000	0.000000	0.000000	6.441609	0.650214	-1.516155	1.000000	
[Neck]
#Fr	Tx	Ty	Tz	Rx	Ry	Rz	SF
1131	0.000000	0.000000	0.000000	-25.347052	-8.006468	-4.016105	1.000000	
1132	0.000000	0.000000	0.000000	-25.360877	-8.071408	-4.016005	1.000000	
1133	0.000000	0.000000	0.000000	-25.376305	-8.115537	-3.990887	1.000000	
1134	0.000000	0.000000	0.000000	-25.400125	-8.140752	-3.914539	1.000000	
[Head]
#Fr	Tx	Ty	Tz	Rx	Ry	Rz	SF
1131	0.000000	0.000000	0.000000	-25.347052	-8.006468	-4.016105	1.000000	
1132	0.000000	0.000000	0.000000	-25.360877	-8.071408	-4.016005	1.000000	
1133	0.000000	0.000000	0.000000	-25.376305	-8.115537	-3.990887	1.000000	
1134	0.000000	0.000000	0.000000	-25.400125	-8.140752	-3.914539	1.000000	
[LClavicle]
#Fr	Tx	Ty	Tz	Rx	Ry	Rz	SF
1131	0.000000	0.000000	0.000000	30.612986	-5.549948	6.653339	1.000000	
1132	0.000000	0.000000	0.000000	30.662565	-5.430976	6.440676	1.000000	
1133	0.000000	0.000000	0.000000	30.711786	-5.304302	6.216064	1.000000	
1134	0.000000	0.000000	0.000000	30.726670	-5.196742	6.034886	1.000000	
[LUpperArm]
#Fr	Tx	Ty	Tz	Rx	Ry	Rz	SF
1131	0.000000	0.000000	0.000000	49.419937	-9.730266	-43.327417	1.000000	
1132	0.000000	0.000000	0.000000	49.402389	-9.411334	-42.940731	1.000000	
1133	0.000000	0.000000	0.000000	49.385584	-9.009674	-42.497332	1.000000	
1134	0.000000	0.000000	0.000000	49.397846	-8.517600	-41.994603	1.000000	
[LLowerArm]
#Fr	Tx	Ty	Tz	Rx	Ry	Rz	SF
1131	0.000000	0.000000	0.000000	-5.269373	0.000000	0.000000	1.000000	
1132	0.000000	0.000000	0.000000	-5.560441	0.000000	0.000000	1.000000	
1133	0.000000	0.000000	0.000000	-5.899279	0.000000	0.000000	1.000000	
1134	0.000000	0.000000	0.000000	-6.358680	0.000000	0.000000	1.000000	
[LHand]
#Fr	Tx	Ty	Tz	Rx	Ry	Rz	SF
1131	0.000000	0.000000	0.000000	15.238999	0.000000	-0.000000	1.000000	
1132	0.000000	0.000000	0.000000	14.809899	-0.000000	-0.000000	1.000000	
1133	0.000000	0.000000	0.000000	14.562997	-0.000000	-0.000000	1.000000	
1134	0.000000	0.000000	0.000000	14.580750	-0.000000	-0.000000	1.000000	
[RClavicle]
#Fr	Tx	Ty	Tz	Rx	Ry	Rz	SF
1131	0.000000	0.000000	0.000000	13.125809	1.742183	-7.614348	1.000000	
1132	0.000000	0.000000	0.000000	13.064349	1.739758	-7.639865	1.000000	
1133	0.000000	0.000000	0.000000	13.036563	1.734446	-7.633586	1.000000	
1134	0.000000	0.000000	0.000000	13.070105	1.722843	-7.564893	1.000000	
[RUpperArm]
#Fr	Tx	Ty	Tz	Rx	Ry	Rz	SF
1131	0.000000	0.000000	0.000000	44.913911	56.174855	12.440659	1.000000	
1132	0.000000	0.000000	0.000000	44.794736	55.466038	12.305465	1.000000	
1133	0.000000	0.000000	0.000000	44.534611	54.672660	12.011106	1.000000	
1134	0.000000	0.000000	0.000000	44.139338	53.816730	11.570518	1.000000	
[RLowerArm]
#Fr	Tx	Ty	Tz	Rx	Ry	Rz	SF
1131	0.000000	0.000000	0.000000	20.515108	0.000000	0.000000	1.000000	
1132	0.000000	0.000000	0.000000	20.127107	0.000000	0.000000	1.000000	
1133	0.000000	0.000000	0.000000	19.712946	0.000000	0.000000	1.000000	
1134	0.000000	0.000000	0.000000	19.284035	0.000000	0.000000	1.000000	
[RHand]
#Fr	Tx	Ty	Tz	Rx	Ry	Rz	SF
1131	0.000000	0.000000	0.000000	17.697265	31.675652	-2.057266	1.000000	
1132	0.000000	0.000000	0.000000	17.332197	30.403329	-2.694780	1.000000	
1133	0.000000	0.000000	0.000000	16.943476	28.836955	-3.470092	1.000000	
1134	0.000000	0.000000	0.000000	16.535457	27.015323	-4.344846	1.000000	
[RUpperLeg]
#Fr	Tx	Ty	Tz	Rx	Ry	Rz	SF
1131	0.000000	0.000000	0.000000	95.889810	8.392908	20.800141	1.000000	
1132	0.000000	0.000000	0.000000	95.172318	8.468657	20.942580	1.000000	
1133	0.000000	0.000000	0.000000	94.462440	8.563086	21.059319	1.000000	
1134	0.000000	0.000000	0.000000	93.766575	8.677981	21.165697	1.000000	
[RLowerLeg]
#Fr	Tx	Ty	Tz	Rx	Ry	Rz	SF
1131	0.000000	0.000000	0.000000	-93.772610	-0.000000	0.000000	1.000000	
1132	0.000000	0.000000	0.000000	-92.818043	0.000000	0.000000	1.000000	
1133	0.000000	0.000000	0.000000	-91.853397	-0.000000	0.000000	1.000000	
1134	0.000000	0.000000	0.000000	-90.876386	-0.000000	0.000000	1.000000	
[RFoot]
#Fr	Tx	Ty	Tz	Rx	Ry	Rz	SF
1131	0.000000	0.000000	0.000000	29.746490	2.421100	-18.470497	1.000000	
1132	0.000000	0.000000	0.000000	29.570643	2.394945	-18.322948	1.000000	
1133	0.000000	0.000000	0.000000	29.433603	2.546143	-18.011992	1.000000	
1134	0.000000	0.000000	0.000000	29.284777	2.772226	-17.657040	1.000000	
[RToes]
#Fr	Tx	Ty	Tz	Rx	Ry	Rz	SF
1131	0.000000	0.000000	0.000000	-3.781430	-0.000000	0.000000	1.000000	
1132	0.000000	0.000000	0.000000	-3.978703	-0.000000	0.000000	1.000000	
1133	0.000000	0.000000	0.000000	-4.373705	0.000000	0.000000	1.000000	
1134	0.000000	0.000000	0.000000	-4.806358	0.000000	0.000000	1.000000	
[LUpperLeg]
#Fr	Tx	Ty	Tz	Rx	Ry	Rz	SF
1131	0.000000	0.000000	0.000000	101.394457	-44.224921	-22.199228	1.000000	
1132	0.000000	0.000000	0.000000	100.877766	-44.213540	-22.200662	1.000000	
1133	0.000000	0.000000	0.000000	100.316915	-44.171078	-22.193524	1.000000	
1134	0.000000	0.000000	0.000000	99.714047	-44.100599	-22.177048	1.000000	
[LLowerLeg]
#Fr	Tx	Ty	Tz	Rx	Ry	Rz	SF
1131	0.000000	0.000000	0.000000	-93.680212	-0.000000	-0.000000	1.000000	
1132	0.000000	0.000000	0.000000	-92.664162	-0.000000	-0.000000	1.000000	
1133	0.000000	0.000000	0.000000	-91.607930	-0.000000	-0.000000	1.000000	
1134	0.000000	0.000000	0.000000	-90.510427	-0.000000	-0.000000	1.000000	
[LFoot]
#Fr	Tx	Ty	Tz	Rx	Ry	Rz	SF
1131	0.000000	0.000000	0.000000	34.685122	-1.724663	-10.694349	1.000000	
1132	0.000000	0.000000	0.000000	34.254677	-1.585421	-10.826644	1.000000	
1133	0.000000	0.000000	0.000000	33.812679	-1.426978	-10.954302	1.000000	
1134	0.000000	0.000000	0.000000	33.361356	-1.251591	-11.083273	1.000000	
[LToes]
#Fr	Tx	Ty	Tz	Rx	Ry	Rz	SF
1131	0.000000	0.000000	0.000000	-2.183118	0.000000	-0.000000	1.000000	
1132	0.000000	0.000000	0.000000	-2.076373	0.000000	-0.000000	1.000000	
1133	0.000000	0.000000	0.000000	-1.962657	0.000000	-0.000000	1.000000	
1134	0.000000	0.000000	0.000000	-1.861430	0.000000	-0.000000	1.000000	
